<svg width="83" height="52" viewBox="0 0 83 52" fill="none" xmlns="http://www.w3.org/2000/svg">
<path d="M11.6219 11.9003V39.9003C11.6219 41.9303 12.2519 43.8203 14.7019 43.8203C17.1519 43.8203 17.7819 41.9303 17.7819 39.9003V11.9003C17.7819 9.87031 17.1519 7.98031 14.7019 7.98031C12.2519 7.98031 11.6219 9.87031 11.6219 11.9003ZM29.4019 14.5603V37.2403C29.4019 48.6503 22.4019 51.8003 14.7019 51.8003C7.00191 51.8003 0.00191418 48.6503 0.00191418 37.2403V14.5603C0.00191418 3.15031 7.00191 0.000311732 14.7019 0.000311732C22.4019 0.000311732 29.4019 3.15031 29.4019 14.5603ZM43.9526 50.8203H32.3326V0.980312H56.4126V8.54031H43.9526V19.4603H55.9926V27.0203H43.9526V50.8203ZM69.8608 50.8203H58.2408V0.980312H82.3208V8.54031H69.8608V19.4603H81.9008V27.0203H69.8608V50.8203Z" fill="#0E0E0E"/>
</svg>
