<svg width="76" height="98" viewBox="0 0 76 98" fill="none" xmlns="http://www.w3.org/2000/svg">
<path d="M10.6258 10.8808V36.4808C10.6258 38.3368 11.2018 40.0648 13.4418 40.0648C15.6818 40.0648 16.2578 38.3368 16.2578 36.4808V10.8808C16.2578 9.02484 15.6818 7.29684 13.4418 7.29684C11.2018 7.29684 10.6258 9.02484 10.6258 10.8808ZM26.8818 13.3128V34.0488C26.8818 44.4808 20.4818 47.3608 13.4418 47.3608C6.40175 47.3608 0.00175011 44.4808 0.00175011 34.0488V13.3128C0.00175011 2.88084 6.40175 0.000843048 13.4418 0.000843048C20.4818 0.000843048 26.8818 2.88084 26.8818 13.3128ZM40.1853 46.4648H29.5613V0.896843H51.5773V7.80884H40.1853V17.7928H51.1933V24.7048H40.1853V46.4648ZM63.8728 46.4648H53.2488V0.896843H75.2648V7.80884H63.8728V17.7928H74.8808V24.7048H63.8728V46.4648ZM9.97977 64.7048H6.26977V57.4248H9.97977V50.2148H21.0398V57.4248H25.8698V64.7048H21.0398V86.5448C21.0398 88.9248 21.1098 90.1848 23.6998 90.1848H25.8698V97.4648H16.8398C11.3098 97.4648 9.97977 94.3848 9.97977 89.1348V64.7048ZM36.1527 80.4548L32.3027 97.4648H22.5027L29.2227 76.6048L22.9227 57.4248H34.3327L37.7627 72.8948H37.9027L41.3327 57.4248H51.2027L44.6927 76.6048L51.7627 97.4648H40.1427L36.2927 80.4548H36.1527ZM52.0973 64.7048H48.3873V57.4248H52.0973V50.2148H63.1573V57.4248H67.9873V64.7048H63.1573V86.5448C63.1573 88.9248 63.2273 90.1848 65.8173 90.1848H67.9873V97.4648H58.9573C53.4273 97.4648 52.0973 94.3848 52.0973 89.1348V64.7048Z" fill="#0E0E0E"/>
</svg>
