<svg width="62" height="48" viewBox="0 0 62 48" fill="none" xmlns="http://www.w3.org/2000/svg">
<path d="M3.71024 14.49H0.000235165V7.21H3.71024V-8.34465e-07H14.7702V7.21H19.6002V14.49H14.7702V36.33C14.7702 38.71 14.8402 39.97 17.4302 39.97H19.6002V47.25H10.5702C5.04024 47.25 3.71024 44.17 3.71024 38.92V14.49ZM29.8831 30.24L26.0331 47.25H16.2331L22.9531 26.39L16.6531 7.21H28.0631L31.4931 22.68H31.6331L35.0631 7.21H44.9331L38.4231 26.39L45.4931 47.25H33.8731L30.0231 30.24H29.8831ZM45.8278 14.49H42.1178V7.21H45.8278V-8.34465e-07H56.8878V7.21H61.7178V14.49H56.8878V36.33C56.8878 38.71 56.9578 39.97 59.5478 39.97H61.7178V47.25H52.6878C47.1578 47.25 45.8278 44.17 45.8278 38.92V14.49Z" fill="#0E0E0E"/>
</svg>
